<?xml version="1.0" encoding="UTF-8"?>
<svg width="214px" height="40px" viewBox="0 0 214 40" version="1.1" xmlns="http://www.w3.org/2000/svg" xmlns:xlink="http://www.w3.org/1999/xlink">
    <!-- Generator: Sketch 51 (57462) - http://www.bohemiancoding.com/sketch -->
    <title>logo</title>
    <desc>Created with Sketch.</desc>
    <defs></defs>
    <g id="Page-1" stroke="none" stroke-width="1" fill="none" fill-rule="evenodd">
        <g id="CNC_登录页" transform="translate(-50.000000, -30.000000)" fill="#FFFFFF">
            <g id="Leftsidebar">
                <g id="logo">
                    <path d="M65.0247779,49.6444059 L66.4306278,49.6444059 L89.9988552,49.6444059 C90.0169685,51.4229185 89.8193422,53.0418474 89.4630172,54.4839549 C89.2073058,55.5189361 88.9809431,56.5035415 88.6246901,57.424111 C88.2713899,58.3370555 87.9689008,59.2539029 87.5011589,60.0607112 C87.2620844,60.4885444 87.0229019,60.916486 86.7838274,61.3443192 C86.4052479,61.9546112 85.99876,62.5403296 85.5738708,63.1049436 C83.6830974,65.6174472 81.116981,67.4431194 77.9597863,68.6903729 C76.6293742,69.2159222 75.1678834,69.4811362 73.5866573,69.7745013 C72.9976316,69.8837453 72.3965785,69.8504264 71.7717223,69.9479618 C71.3613453,70.0119977 70.9137333,69.9323865 70.4753401,70 L69.541945,70 C69.121377,69.985545 68.700701,69.9710899 68.280133,69.9566349 C67.974799,69.9306158 67.669357,69.9045967 67.364023,69.8785776 C66.743308,69.772333 66.1117178,69.7288234 65.5318029,69.6010408 C64.497434,69.3730847 63.5191336,69.1826034 62.6106218,68.8291414 C61.8060726,68.5161174 60.9824379,68.2312084 60.2684914,67.8143972 C59.571686,67.40756 58.8802462,67.0288017 58.2374927,66.5741544 C56.1072128,65.0673244 54.3961324,63.1298424 53.0346791,60.8499566 C52.5158741,59.9811723 52.0478802,59.0528693 51.6345863,58.074588 C51.4656245,57.6745447 51.3457812,57.2681772 51.1851739,56.8516912 C50.9629884,56.275477 50.7575838,55.6215308 50.6493359,54.9609714 C57.1104325,54.9638624 63.5734736,54.9667534 70.0345702,54.9696444 C69.3710694,54.985167 68.7074545,55.0006895 68.0438423,55.0162121 C68.0624905,55.0236954 68.0811802,55.0311646 68.099969,55.0386 C68.1002038,55.0386 68.0990297,55.0392 68.0990297,55.0392 C68.0660394,55.0356 68.033049,55.0321 68,55.0285 C68.0004653,55.0247349 68.0009398,55.0209697 68.0014126,55.0172046 C67.4432205,55.0302613 66.8850322,55.043318 66.3269173,55.0563747 C66.1541023,55.0592657 65.9812154,55.0621567 65.8083644,55.0650477 C65.2380283,55.0939578 64.6675121,55.1228679 64.09714,55.151778 C63.9070039,55.160451 63.7168679,55.169124 63.5267318,55.1777971 C62.8901362,55.2327262 62.2533245,55.2876554 61.6167288,55.3425846 C61.078082,55.4177508 60.5392552,55.492917 60.0005724,55.5680833 C58.9301929,55.8028332 57.9490837,56.029416 57.0707488,56.4180399 C55.7848817,56.9869543 54.4548297,58.2201503 54.9619672,60.2775369 C55.0747164,60.7349668 55.2213156,61.1417317 55.3940945,61.5351258 C55.8160669,62.4958803 56.4662026,63.2493857 57.0793913,64.0156114 C57.2812308,64.2678158 57.5113026,64.5326684 57.7621526,64.7354727 C57.9580503,64.9233521 58.1539841,65.1113038 58.3498458,65.2992194 C58.8107457,65.670425 59.2617426,66.055146 59.7499385,66.4006938 C61.1006967,67.3567866 62.6674465,68.1468271 64.4082717,68.699046 C64.9714777,68.8777103 65.5566502,69.0096126 66.1540663,69.1587164 C66.5820525,69.265503 67.0124874,69.2911969 67.4677336,69.3755421 C67.9246362,69.4601764 68.4330341,69.4433001 68.9196815,69.5229835 C69.1443518,69.5287655 69.36913,69.5345476 69.5938003,69.5403296 L70.4321274,69.5403296 C70.8547119,69.4715958 71.2846067,69.5443047 71.6766542,69.4796184 C72.1088176,69.4082827 72.5199148,69.4314108 72.9298236,69.349523 C74.0594766,69.1238436 75.1320168,68.9554423 76.1016386,68.5776236 C77.1465946,68.170425 78.1178009,67.7387612 79.0055346,67.1812663 C82.3435026,65.0850679 85.0388611,61.4356389 85.9455003,56.8950564 C86.0234273,56.5048786 86.1137779,55.7253541 86.0405684,55.2732003 C86.0348067,55.1431049 86.029045,55.0130095 86.0232833,54.8829141 C85.9658823,54.5413053 85.9416832,54.2090922 85.8504323,53.9028621 C85.4882375,52.687229 84.83857,51.8533536 83.8712889,51.2489159 C82.8101362,50.5857779 81.5167604,50.4144604 79.9586063,50.3705526 C79.9059332,50.6734077 79.8270972,50.9695636 79.7094614,51.2558357 C79.5264298,51.7011088 79.2670561,52.0954495 78.9429118,52.4465748 C78.4769635,52.9512691 77.9227743,53.3354306 77.3166958,53.6476399 C76.6765581,53.9773412 76.0038895,54.2168267 75.3121537,54.4101201 C74.7508324,54.5669597 74.1814694,54.6822008 73.6085767,54.7807952 C73.3109593,54.8319849 73.0095939,54.8621548 72.7092473,54.8958526 C72.3800087,54.9327841 72.0504062,54.9682457 71.7201851,54.9936385 C71.5524728,55.0065002 71.3830139,54.9958801 71.2062774,54.9958801 C71.2591492,54.9826141 71.3068902,54.9690542 71.3553227,54.958728 C71.841903,54.8550258 72.3079241,54.69543 72.7417054,54.4456552 C73.2659473,54.1438455 73.7005656,53.7435885 74.0481074,53.2455087 C74.4460829,52.6751828 74.7013447,52.0426797 74.8496622,51.3646459 C74.8997685,51.1355969 74.9376484,50.9036815 74.9749461,50.6720601 C74.9879002,50.5916559 74.9846981,50.5082384 74.9841159,50.4261806 C74.9838767,50.390121 74.9610816,50.3646246 74.9265468,50.3555941 L73.5693722,50.3555941 L50.0011448,50.3555941 C49.9830315,48.5770815 50.1806578,46.9581526 50.5369828,45.5160451 C50.7927302,44.4810639 51.0190569,43.4964585 51.3753099,42.575889 C51.7286461,41.6629084 52.0310992,40.7460971 52.4988411,39.9392888 C52.7379156,39.5114556 52.9770981,39.083514 53.2161726,38.6556808 C53.5947521,38.0453527 54.00124,37.4596343 54.4261292,36.8950564 C56.3169026,34.3825166 58.883019,32.5568445 62.0402137,31.3096271 C63.3706258,30.7840416 64.8321166,30.5188277 66.4133427,30.2254987 C67.0023684,30.1162186 67.6034215,30.1495736 68.2282777,30.0520382 C68.6386187,29.9879662 69.0862667,30.0676135 69.5246599,30 L70.458055,30 C70.878623,30.014455 71.299299,30.0289101 71.719867,30.0433651 C72.025201,30.0693842 72.330643,30.0954033 72.635977,30.1214224 C73.256728,30.227667 73.8883182,30.2711766 74.4681971,30.3989592 C75.502566,30.6268792 76.4808664,30.8173966 77.3893782,31.1708586 C78.1939274,31.4838826 79.0175621,31.7687554 79.7315086,32.1856028 C80.428314,32.5924039 81.1197898,32.9711983 81.7625073,33.4258456 C83.8928233,34.9326395 85.6038676,36.8701214 86.9653209,39.1500434 C87.4841259,40.0188277 87.9521558,40.9471307 88.3654137,41.925412 C88.5344115,42.3254192 88.6542188,42.7317866 88.8148261,43.1483088 C89.0370116,43.724523 89.2424162,44.3784331 89.3506641,45.0390286 C82.8895675,45.0361376 76.4265264,45.0332466 69.9654298,45.0303556 C71.2012061,45.0014455 72.4373065,44.9725354 73.6730827,44.9436253 C73.8458977,44.9407343 74.0188206,44.9378433 74.1916356,44.9349523 C74.7619717,44.9060422 75.3325239,44.8771321 75.90286,44.848222 C76.0929601,44.839549 76.2831681,44.830876 76.4732682,44.8222029 C77.1098638,44.7672738 77.7466755,44.7123446 78.3832712,44.6574154 C78.921918,44.5822492 79.4607808,44.507083 79.9994276,44.4319167 C81.0698431,44.1971307 82.0509523,43.970584 82.9292512,43.5819601 C84.2151183,43.0130095 85.5451703,41.7798497 85.0380328,39.7224631 C84.9252836,39.2649971 84.7786844,38.8582683 84.6059055,38.4648742 C84.1839331,37.5040836 83.5337974,36.7505782 82.9206087,35.9843886 C82.7187692,35.7321842 82.4886974,35.4673316 82.2378474,35.2645273 C82.0419857,35.0766117 81.8460519,34.88866 81.6501542,34.7007806 C81.1892543,34.329575 80.7382574,33.944854 80.2500615,33.5993062 C78.8993033,32.6432134 77.3325535,31.8531367 75.5917283,31.300954 C75.0285223,31.1222897 74.4433498,30.9903513 73.8459337,30.8412836 C73.4179835,30.7344608 72.9875487,30.7088031 72.5322664,30.6244579 C72.0753638,30.5397875 71.5669659,30.5566638 71.0803185,30.4770165 C70.8556482,30.4712345 70.630906,30.4654524 70.4061997,30.4596704 L69.5678726,30.4596704 C69.1453241,30.528368 68.7153933,30.4556592 68.3233458,30.5203816 C67.8911824,30.5917173 67.4800852,30.5685892 67.0701764,30.650477 C65.9405234,30.8761564 64.8679832,31.0445577 63.8983614,31.4223764 C62.8534054,31.829575 61.8821991,32.2612388 60.9944654,32.8187337 C57.6564974,34.9148959 54.9611389,38.5643249 54.0544997,43.1049436 C53.9766087,43.4950853 53.8862221,44.2746097 53.9594316,44.7267997 C53.9651933,44.8568951 53.970955,44.9869905 53.9767167,45.1170859 C54.0341177,45.4586586 54.0583168,45.7908716 54.1495677,46.0971379 C54.5117625,47.312771 55.16143,48.1466103 56.1287111,48.7510841 C57.1933734,49.4163704 58.4917431,49.5866457 60.0567455,49.6298711 C60.1717716,48.9701391 60.4317671,48.3671884 60.8564389,47.8288459 C61.1340429,47.4769856 61.4602977,47.1778585 61.8206481,46.914634 C62.3476918,46.5295905 62.9240414,46.2385112 63.5269541,45.9984745 C64.1832844,45.7371977 64.8621026,45.5518785 65.5507091,45.4023149 C65.9712815,45.3109599 66.3951654,45.2376848 66.8222877,45.1841432 C67.0703447,45.1530546 67.3178558,45.117299 67.5660948,45.088305 C67.7161953,45.0707763 67.8671327,45.0597152 68.0179609,45.0500138 C68.3022968,45.0317134 68.5868509,45.0164998 68.8713323,45 C68.4991922,45.0879007 68.1348028,45.1844005 67.7824578,45.3276802 C66.9441875,45.6686263 66.2915687,46.2298755 65.8150315,47.002645 C65.4853562,47.5373255 65.2707034,48.1186023 65.1445098,48.7331358 C65.0926569,48.9857034 65.0596166,49.2422031 65.018389,49.4969756 C65.0146411,49.52009 65.0119483,49.5436453 65.0115117,49.5670537 C65.0108766,49.5996066 65.0148613,49.6250562 65.0247779,49.6444059 Z M100,59 L100,41.576 C100,40.9279968 100.179998,40.3640024 100.54,39.884 C100.900002,39.4039976 101.337997,39.068001 101.854,38.876 C102.370003,38.683999 102.921997,38.6419995 103.51,38.75 C104.098003,38.8580005 104.607998,39.1639975 105.04,39.668 L117.964,54.572 L130.888,39.668 C131.320002,39.1639975 131.829997,38.8580005 132.418,38.75 C133.006003,38.6419995 133.557997,38.683999 134.074,38.876 C134.590003,39.068001 135.027998,39.4039976 135.388,39.884 C135.748002,40.3640024 135.928,40.9279968 135.928,41.576 L135.928,59 L131.644,59 L131.644,45.284 L120.124,58.568 C119.835999,58.9040017 119.500002,59.1559992 119.116,59.324 C118.731998,59.4920008 118.342002,59.576 117.946,59.576 C117.549998,59.576 117.166002,59.4920008 116.794,59.324 C116.421998,59.1559992 116.092001,58.9040017 115.804,58.568 L104.284,45.284 L104.284,59 L100,59 Z M142.192,42.98 L137.872,42.98 L137.872,40.46 L142.192,40.46 L142.192,42.98 Z M137.872,44.816 L142.192,44.816 L142.192,59 L137.872,59 L137.872,44.816 Z M144.244,54.716 L160.156,54.716 L153.028,45.86 C152.499997,45.1879966 152.206,44.4680038 152.146,43.7 C152.086,42.9319962 152.217998,42.2180033 152.542,41.558 C152.866002,40.8979967 153.345997,40.3460022 153.982,39.902 C154.618003,39.4579978 155.367996,39.236 156.232,39.236 L172.108,39.236 L172.108,43.52 L156.628,43.52 L163.72,52.376 C164.248003,53.0480034 164.542,53.7679962 164.602,54.536 C164.662,55.3040038 164.536002,56.0179967 164.224,56.678 C163.911998,57.3380033 163.438003,57.8899978 162.802,58.334 C162.165997,58.7780022 161.416004,59 160.552,59 L144.244,59 L144.244,54.716 Z M202.744,54.68 L202.744,59 L180.568,59 C179.583995,59 178.660004,58.8140019 177.796,58.442 C176.931996,58.0699981 176.182003,57.5660032 175.546,56.93 C174.909997,56.2939968 174.406002,55.5440043 174.034,54.68 C173.661998,53.8159957 173.476,52.8920049 173.476,51.908 L173.476,46.364 C173.476,45.3799951 173.661998,44.4560043 174.034,43.592 C174.406002,42.7279957 174.909997,41.9720032 175.546,41.324 C176.182003,40.6759968 176.931996,40.1660019 177.796,39.794 C178.660004,39.4219981 179.583995,39.236 180.568,39.236 L202.744,39.272 L202.744,43.592 L180.568,43.592 C179.799996,43.592 179.146003,43.8619973 178.606,44.402 C178.065997,44.9420027 177.796,45.5959962 177.796,46.364 L177.796,46.94 L201.412,46.94 L201.412,51.296 L177.796,51.296 L177.796,51.908 C177.796,52.6760038 178.065997,53.3299973 178.606,53.87 C179.146003,54.4100027 179.799996,54.68 180.568,54.68 L202.744,54.68 Z M233.38,54.68 L233.38,59 L211.204,59 C210.219995,59 209.296004,58.8140019 208.432,58.442 C207.567996,58.0699981 206.818003,57.5660032 206.182,56.93 C205.545997,56.2939968 205.042002,55.5440043 204.67,54.68 C204.297998,53.8159957 204.112,52.8920049 204.112,51.908 L204.112,46.364 C204.112,45.3799951 204.297998,44.4560043 204.67,43.592 C205.042002,42.7279957 205.545997,41.9720032 206.182,41.324 C206.818003,40.6759968 207.567996,40.1660019 208.432,39.794 C209.296004,39.4219981 210.219995,39.236 211.204,39.236 L233.38,39.272 L233.38,43.592 L211.204,43.592 C210.435996,43.592 209.782003,43.8619973 209.242,44.402 C208.701997,44.9420027 208.432,45.5959962 208.432,46.364 L208.432,46.94 L232.048,46.94 L232.048,51.296 L208.432,51.296 L208.432,51.908 C208.432,52.6760038 208.701997,53.3299973 209.242,53.87 C209.782003,54.4100027 210.435996,54.68 211.204,54.68 L233.38,54.68 Z M243.892,49.136 L256.924,49.136 C257.692004,49.136 258.345997,48.8660027 258.886,48.326 C259.426003,47.7859973 259.696,47.1320038 259.696,46.364 C259.696,45.5959962 259.426003,44.9420027 258.886,44.402 C258.345997,43.8619973 257.692004,43.592 256.924,43.592 L239.068,43.592 L239.068,59 L234.748,59 L234.748,39.272 L256.924,39.236 C257.908005,39.236 258.831996,39.4219981 259.696,39.794 C260.560004,40.1660019 261.309997,40.6759968 261.946,41.324 C262.582003,41.9720032 263.085998,42.7279957 263.458,43.592 C263.830002,44.4560043 264.016,45.3799951 264.016,46.364 C264.016,47.3480049 263.830002,48.2719957 263.458,49.136 C263.085998,50.0000043 262.582003,50.7499968 261.946,51.386 C261.309997,52.0220032 260.560004,52.5259981 259.696,52.898 C258.831996,53.2700019 257.908005,53.456 256.924,53.456 L254.404,53.456 L263.8,59 L255.412,59 L243.172,51.764 C242.859998,51.5959992 242.656,51.3620015 242.56,51.062 C242.464,50.7619985 242.452,50.4680014 242.524,50.18 C242.596,49.8919986 242.751999,49.646001 242.992,49.442 C243.232001,49.237999 243.531998,49.136 243.892,49.136 Z"></path>
                </g>
            </g>
        </g>
    </g>
</svg>